<svg width="38" height="38" viewBox="0 0 38 38" fill="none" xmlns="http://www.w3.org/2000/svg">
<path d="M29.7158 23.371C29.7158 25.3514 31.3432 26.9634 33.3236 26.9634C33.3236 32.7205 31.8805 34.1637 26.1234 34.1637H11.7229C5.96576 34.1637 4.52264 32.7205 4.52264 26.9634V26.2572C6.5031 26.2572 8.13045 24.6298 8.13045 22.6494C8.13045 20.6689 6.5031 19.0416 4.52264 19.0416V18.3354C4.538 12.5783 5.96576 11.1351 11.7229 11.1351H26.108C31.8652 11.1351 33.3083 12.5783 33.3083 18.3354V19.7785C31.3278 19.7785 29.7158 21.3751 29.7158 23.371Z" stroke="#BF49DC" stroke-width="2.30285" stroke-linecap="round" stroke-linejoin="round"/>
<path d="M25.5724 11.1352H11.6171L16.1154 6.63692C19.7846 2.96771 21.6269 2.96771 25.2961 6.63692L26.2172 7.55806C25.25 8.52526 25.0197 9.95303 25.5724 11.1352Z" stroke="#BF49DC" stroke-width="2.30285" stroke-linecap="round" stroke-linejoin="round"/>
<path d="M15.851 11.1355L15.851 34.164" stroke="#BF49DC" stroke-width="2.30285" stroke-linecap="round" stroke-linejoin="round" stroke-dasharray="7.68 7.68"/>
</svg>
