<svg width="12" height="12" viewBox="0 0 12 12" fill="none" xmlns="http://www.w3.org/2000/svg">
<path d="M9.81477 3.52726C8.35847 3.38294 6.89342 3.30859 5.43275 3.30859C4.56684 3.30859 3.70093 3.35233 2.83502 3.43979L1.94287 3.52726" stroke="#C90707" stroke-width="0.828621" stroke-linecap="round" stroke-linejoin="round"/>
<path d="M4.34814 3.08549L4.44436 2.51259C4.51433 2.09712 4.56681 1.78662 5.30589 1.78662H6.45169C7.19078 1.78662 7.24763 2.11462 7.31323 2.51696L7.40944 3.08549" stroke="#C90707" stroke-width="0.828621" stroke-linecap="round" stroke-linejoin="round"/>
<path d="M8.87469 4.90918L8.59043 9.31307C8.54232 9.99968 8.50296 10.5332 7.28282 10.5332H4.47517C3.25503 10.5332 3.21567 9.99968 3.16756 9.31307L2.8833 4.90918" stroke="#C90707" stroke-width="0.828621" stroke-linecap="round" stroke-linejoin="round"/>
<path d="M5.14844 8.12793H6.60474" stroke="#C90707" stroke-width="0.828621" stroke-linecap="round" stroke-linejoin="round"/>
<path d="M4.78564 6.37854H6.97228" stroke="#C90707" stroke-width="0.828621" stroke-linecap="round" stroke-linejoin="round"/>
</svg>
