<svg width="27" height="26" viewBox="0 0 27 26" fill="none" xmlns="http://www.w3.org/2000/svg">
<path d="M6.98734 11.1257V9.01299C6.98734 5.51642 8.0437 2.6748 13.3255 2.6748C18.6073 2.6748 19.6637 5.51642 19.6637 9.01299V11.1257" stroke="#9349DC" stroke-width="1.54053" stroke-linecap="round" stroke-linejoin="round"/>
<path d="M13.3255 20.1048C14.7841 20.1048 15.9664 18.9224 15.9664 17.4639C15.9664 16.0054 14.7841 14.823 13.3255 14.823C11.867 14.823 10.6846 16.0054 10.6846 17.4639C10.6846 18.9224 11.867 20.1048 13.3255 20.1048Z" stroke="#9349DC" stroke-width="1.54053" stroke-linecap="round" stroke-linejoin="round"/>
<path d="M18.6074 23.8022H8.04371C3.81825 23.8022 2.76189 22.7459 2.76189 18.5204V16.4077C2.76189 12.1822 3.81825 11.1259 8.04371 11.1259H18.6074C22.8328 11.1259 23.8892 12.1822 23.8892 16.4077V18.5204C23.8892 22.7459 22.8328 23.8022 18.6074 23.8022Z" stroke="#9349DC" stroke-width="1.54053" stroke-linecap="round" stroke-linejoin="round"/>
</svg>
