<svg width="38" height="38" viewBox="0 0 38 38" fill="none" xmlns="http://www.w3.org/2000/svg">
<path d="M26.7286 6.70068H11.3762C5.49627 6.70068 3.85356 8.1131 3.71539 13.6092C6.6784 13.6092 9.07336 16.0196 9.07336 18.9826C9.07336 21.9456 6.6784 24.3405 3.71539 24.3559C3.85356 29.852 5.49627 31.2644 11.3762 31.2644H26.7286C32.8695 31.2644 34.4047 29.7292 34.4047 23.5883V14.3769C34.4047 8.23592 32.8695 6.70068 26.7286 6.70068Z" stroke="#2C6DF8" stroke-width="2.30285" stroke-linecap="round" stroke-linejoin="round"/>
<path d="M14.4441 6.70068V12.074" stroke="#2C6DF8" stroke-width="2.30285" stroke-linecap="round" stroke-linejoin="round"/>
<path d="M14.4441 25.8911V31.2644" stroke="#2C6DF8" stroke-width="2.30285" stroke-linecap="round" stroke-linejoin="round"/>
<path d="M23.7044 14.8834L24.6562 16.8025C24.7483 16.9867 24.9325 17.1249 25.1321 17.1556L27.2508 17.4626C27.7727 17.5394 27.9877 18.1842 27.6039 18.5526L26.0686 20.0418C25.9151 20.18 25.8537 20.3949 25.8844 20.6099L26.2529 22.7131C26.345 23.2351 25.7923 23.6343 25.3317 23.3886L23.4434 22.3907C23.2591 22.2986 23.0289 22.2986 22.8446 22.3907L20.9563 23.3886C20.4804 23.6343 19.943 23.2351 20.0352 22.7131L20.4036 20.6099C20.4343 20.3949 20.3729 20.1953 20.2194 20.0418L18.6995 18.5526C18.3157 18.1842 18.5306 17.5394 19.0526 17.4626L21.1712 17.1556C21.3862 17.1249 21.555 17.0021 21.6471 16.8025L22.5836 14.8834C22.7986 14.4075 23.4741 14.4075 23.7044 14.8834Z" stroke="#2C6DF8" stroke-width="2.30285" stroke-linecap="round" stroke-linejoin="round"/>
</svg>
