<svg width="38" height="37" viewBox="0 0 38 37" fill="none" xmlns="http://www.w3.org/2000/svg">
<path d="M14.4547 33.8683H23.6661C31.3423 33.8683 34.4128 30.7978 34.4128 23.1216V13.9102C34.4128 6.23404 31.3423 3.16357 23.6661 3.16357H14.4547C6.77854 3.16357 3.70807 6.23404 3.70807 13.9102V23.1216C3.70807 30.7978 6.77854 33.8683 14.4547 33.8683Z" stroke="#FFC24B" stroke-width="2.30285" stroke-linecap="round" stroke-linejoin="round"/>
<path d="M25.6311 20.9877C23.8963 22.7225 21.4092 23.2599 19.2138 22.569L15.2376 26.5299C14.9612 26.8216 14.3932 27.0058 13.9787 26.9444L12.1364 26.6988C11.5223 26.622 10.9696 26.0386 10.8775 25.4399L10.6319 23.5976C10.5705 23.1984 10.7701 22.6304 11.0464 22.3387L15.0073 18.3778C14.3318 16.1824 14.8538 13.6953 16.5886 11.9605C19.0757 9.47344 23.1287 9.47344 25.6311 11.9605C28.1182 14.4323 28.1182 18.4853 25.6311 20.9877Z" stroke="#FFC24B" stroke-width="2.30285" stroke-miterlimit="10" stroke-linecap="round" stroke-linejoin="round"/>
<path d="M16.6809 25.0868L15.376 23.7665" stroke="#FFC24B" stroke-width="2.30285" stroke-miterlimit="10" stroke-linecap="round" stroke-linejoin="round"/>
<path d="M21.2011 16.5201H21.2149" stroke="#FFC24B" stroke-width="3.07047" stroke-linecap="round" stroke-linejoin="round"/>
</svg>
