<svg width="20" height="20" viewBox="0 0 20 20" fill="none" xmlns="http://www.w3.org/2000/svg">
<path fill-rule="evenodd" clip-rule="evenodd" d="M14.3175 0.0499573C17.537 0.0499573 19.7002 2.30906 19.7002 5.67016V13.4298C19.7002 16.7909 17.537 19.05 14.3156 19.05H6.081C2.8624 19.05 0.700195 16.7909 0.700195 13.4298V5.67016C0.700195 2.30906 2.8624 0.0499573 6.081 0.0499573H14.3175ZM14.3175 1.47496H6.081C3.67845 1.47496 2.1252 3.12131 2.1252 5.67016V13.4298C2.1252 15.9786 3.67845 17.625 6.081 17.625H14.3156C16.721 17.625 18.2752 15.9786 18.2752 13.4298V5.67016C18.2752 3.12131 16.721 1.47496 14.3175 1.47496ZM7.19516 7.07844C8.31169 7.07921 9.25536 7.82096 9.56206 8.83643L14.9594 8.83698C15.3527 8.83698 15.6719 9.15618 15.6719 9.54948V11.3098C15.6719 11.7031 15.3527 12.0223 14.9594 12.0223C14.5661 12.0223 14.2469 11.7031 14.2469 11.3098V10.262L12.9846 10.2615L12.9851 11.3098C12.9851 11.7031 12.6659 12.0223 12.2726 12.0223C11.8793 12.0223 11.5601 11.7031 11.5601 11.3098L11.5596 10.2615L9.56247 10.2624C9.25597 11.2791 8.31083 12.0222 7.19516 12.0222C5.83191 12.0222 4.72326 10.9126 4.72326 9.55034C4.72326 8.18709 5.83191 7.07844 7.19516 7.07844ZM7.19706 8.50344C6.61756 8.50344 6.14826 8.97274 6.14826 9.55034C6.14826 10.1279 6.61756 10.5972 7.19516 10.5972C7.77181 10.5972 8.24206 10.1279 8.24206 9.55034C8.24206 8.97369 7.77276 8.50439 7.19706 8.50344Z" fill="#58C7D5"/>
</svg>
