<svg width="16" height="20" viewBox="0 0 16 20" fill="none" xmlns="http://www.w3.org/2000/svg">
<path fill-rule="evenodd" clip-rule="evenodd" d="M15.85 15.8038C15.85 18.9983 11.4693 19.3675 8.17502 19.3675L7.93927 19.3673C5.84043 19.3622 0.498047 19.2297 0.498047 15.7844C0.498047 12.6552 4.70274 12.237 7.97195 12.2212L8.41075 12.2209C10.5095 12.226 15.85 12.3585 15.85 15.8038ZM8.17502 13.6745C4.04529 13.6745 1.95183 14.384 1.95183 15.7844C1.95183 17.1975 4.04529 17.9138 8.17502 17.9138C12.3038 17.9138 14.3963 17.2043 14.3963 15.8038C14.3963 14.3907 12.3038 13.6745 8.17502 13.6745ZM8.17502 0.109314C11.0128 0.109314 13.3205 2.41793 13.3205 5.25572C13.3205 8.09352 11.0128 10.4012 8.17502 10.4012H8.144C5.31202 10.3924 3.01795 8.08285 3.02761 5.25281C3.02761 2.41793 5.33625 0.109314 8.17502 0.109314ZM8.17502 1.49332C6.09998 1.49332 4.41162 3.18068 4.41162 5.25572C4.40486 7.32398 6.08059 9.01037 8.14691 9.01812L8.17502 9.71013V9.01812C10.2491 9.01812 11.9365 7.32979 11.9365 5.25572C11.9365 3.18068 10.2491 1.49332 8.17502 1.49332Z" fill="#2C6DF8"/>
</svg>
