<svg width="17" height="16" viewBox="0 0 17 16" fill="none" xmlns="http://www.w3.org/2000/svg">
<path fill-rule="evenodd" clip-rule="evenodd" d="M2.40346 2.56579C2.40499 2.56579 2.36676 2.60555 2.31859 2.65296C2.13355 2.83265 1.75048 3.20655 1.74662 3.98876C1.74054 5.08293 2.46004 7.11453 5.92451 10.5783C9.37292 14.0252 11.4014 14.7531 12.4979 14.7531H12.514C13.2962 14.7493 13.6693 14.3655 13.8497 14.1812C13.9048 14.1246 13.9491 14.0833 13.9805 14.0573C14.742 13.2912 15.132 12.7207 15.1282 12.3553C15.1228 11.9821 14.6587 11.5409 14.0172 10.9308C13.813 10.7366 13.5913 10.5255 13.3573 10.2915C12.751 9.68673 12.4505 9.78995 11.7899 10.0224C10.8762 10.3428 9.62219 10.7786 7.67395 8.82958C5.72265 6.8798 6.15925 5.62734 6.47886 4.71362C6.70977 4.05298 6.81529 3.75172 6.20818 3.14461C5.97039 2.90758 5.75706 2.68278 5.56056 2.47633C4.95422 1.83864 4.51686 1.37757 4.14602 1.37222H4.1399C3.77365 1.37222 3.20478 1.7637 2.39964 2.56885C2.40193 2.56656 2.4027 2.56579 2.40346 2.56579ZM12.4987 15.9001C10.5932 15.9001 8.10902 14.383 5.11402 11.3895C2.10756 8.38381 0.588268 5.8919 0.599673 3.98264C0.606619 2.72101 1.26801 2.07491 1.51651 1.83252C1.52951 1.81646 1.57386 1.77288 1.58915 1.75759C2.68561 0.660354 3.42499 0.216872 4.16055 0.225166C5.01462 0.236753 5.62249 0.875977 6.39169 1.68571C6.58208 1.88604 6.78853 2.10396 7.01868 2.33335C8.13501 3.4497 7.81693 4.36036 7.56155 5.09134C7.28323 5.88884 7.04238 6.57701 8.48444 8.01908C9.92803 9.46116 10.6162 9.22031 11.4106 8.93969C12.1424 8.68431 13.0507 8.36469 14.1686 9.48104C14.3949 9.70737 14.6098 9.91153 14.8078 10.1004C15.6214 10.8734 16.2636 11.4844 16.2745 12.3407C16.2835 13.0709 15.84 13.8149 14.7451 14.9106L14.2603 14.5818L14.6702 14.9825C14.4278 15.231 13.7825 15.8932 12.5201 15.9001H12.4987Z" fill="#6542D0"/>
</svg>
